<?xml version="1.0" encoding="UTF-8"?>
<svg xmlns="http://www.w3.org/2000/svg" xmlns:xlink="http://www.w3.org/1999/xlink" width="24" height="24" viewBox="0 0 24 24" version="1.1">
<g id="surface1">
<path style=" stroke:none;fill-rule:evenodd;fill:rgb(14.117647%,16.078431%,18.431373%);fill-opacity:1;" d="M 11.914062 0 C 5.328125 0 0 5.5 0 12.304688 C 0 17.742188 3.414062 22.347656 8.148438 23.976562 C 8.738281 24.101562 8.957031 23.710938 8.957031 23.386719 C 8.957031 23.101562 8.9375 22.125 8.9375 21.105469 C 5.621094 21.835938 4.933594 19.636719 4.933594 19.636719 C 4.398438 18.210938 3.609375 17.84375 3.609375 17.84375 C 2.523438 17.09375 3.6875 17.09375 3.6875 17.09375 C 4.890625 17.171875 5.523438 18.355469 5.523438 18.355469 C 6.589844 20.226562 8.304688 19.699219 8.996094 19.375 C 9.09375 18.578125 9.410156 18.027344 9.746094 17.722656 C 7.101562 17.4375 4.320312 16.378906 4.320312 11.652344 C 4.320312 10.308594 4.792969 9.207031 5.542969 8.351562 C 5.425781 8.046875 5.011719 6.78125 5.664062 5.09375 C 5.664062 5.09375 6.667969 4.765625 8.9375 6.355469 C 9.90625 6.085938 10.910156 5.949219 11.914062 5.949219 C 12.921875 5.949219 13.945312 6.089844 14.894531 6.355469 C 17.164062 4.765625 18.167969 5.09375 18.167969 5.09375 C 18.820312 6.78125 18.40625 8.046875 18.289062 8.351562 C 19.058594 9.207031 19.511719 10.308594 19.511719 11.652344 C 19.511719 16.378906 16.730469 17.417969 14.066406 17.722656 C 14.5 18.109375 14.875 18.84375 14.875 20.003906 C 14.875 21.65625 14.855469 22.976562 14.855469 23.386719 C 14.855469 23.710938 15.074219 24.101562 15.664062 23.976562 C 20.398438 22.347656 23.8125 17.742188 23.8125 12.304688 C 23.832031 5.5 18.484375 0 11.914062 0 Z M 11.914062 0 "/>
</g>
</svg>
